<svg width="81" height="69" viewBox="0 0 81 69" fill="none" xmlns="http://www.w3.org/2000/svg">
<path d="M40.8521 65.8703L40.8448 65.8742L40.8375 65.8781C40.7852 65.9062 40.7264 65.9211 40.6665 65.9211C40.6066 65.9211 40.5478 65.9062 40.4955 65.8781L40.4882 65.8742L40.4809 65.8703C39.776 65.4979 30.3025 60.3448 21.043 52.2517C11.6512 44.0428 3.16718 33.404 3.1665 22.1009C3.17276 16.9059 5.24322 11.9245 8.92534 8.24959C12.6076 4.57451 17.6011 2.50625 22.8107 2.5C29.4565 2.50038 35.1495 5.34043 38.6687 10.0184L40.6665 12.6739L42.6643 10.0184C46.1835 5.34043 51.8765 2.50038 58.5223 2.5C63.7319 2.50625 68.7254 4.57451 72.4077 8.24959C76.0901 11.9248 78.1606 16.9068 78.1665 22.1023C78.1651 33.4049 69.6814 44.0432 60.29 52.2517C51.0305 60.3448 41.557 65.4979 40.8521 65.8703Z" stroke="black" stroke-width="5"/>
</svg>
