<svg width="46" height="45" viewBox="0 0 46 45" fill="none" xmlns="http://www.w3.org/2000/svg">
<path d="M13.8027 0C6.66145 0 0.852539 5.78634 0.852539 12.8951V31.3114C0.852539 38.4183 6.66683 44.1993 13.8099 44.1993H32.3152C39.4564 44.1993 45.2653 38.413 45.2653 31.3042V12.8879C45.2653 5.78098 39.4511 0 32.308 0H13.8027ZM36.0127 7.36655C37.0342 7.36655 37.8632 8.1916 37.8632 9.20819C37.8632 10.2248 37.0342 11.0498 36.0127 11.0498C34.9912 11.0498 34.1621 10.2248 34.1621 9.20819C34.1621 8.1916 34.9912 7.36655 36.0127 7.36655ZM23.0589 11.0498C29.1824 11.0498 34.1621 16.0057 34.1621 22.0996C34.1621 28.1936 29.1824 33.1495 23.0589 33.1495C16.9355 33.1495 11.9557 28.1936 11.9557 22.0996C11.9557 16.0057 16.9355 11.0498 23.0589 11.0498ZM23.0589 14.7331C21.0958 14.7331 19.213 15.5092 17.8248 16.8907C16.4367 18.2722 15.6568 20.1459 15.6568 22.0996C15.6568 24.0534 16.4367 25.9271 17.8248 27.3086C19.213 28.6901 21.0958 29.4662 23.0589 29.4662C25.0221 29.4662 26.9049 28.6901 28.293 27.3086C29.6812 25.9271 30.4611 24.0534 30.4611 22.0996C30.4611 20.1459 29.6812 18.2722 28.293 16.8907C26.9049 15.5092 25.0221 14.7331 23.0589 14.7331Z" fill="#FFFEFD"/>
</svg>
