<svg width="328" height="234" viewBox="0 0 328 234" fill="none" xmlns="http://www.w3.org/2000/svg">
<path d="M54.4446 98.6306H38.9844V83.7611H19.5692V98.6306H4.10903V61.7778H19.5692V76.673H38.9844V61.7778H54.4446V98.6306Z" fill="#FFFEFD"/>
<path d="M94.497 98.6306H79.0368V81.1672L58.9282 61.7778H76.0577L86.7669 72.7951L97.4503 61.7778H114.58L94.497 81.1672V98.6306Z" fill="#FFFEFD"/>
<path d="M134.54 98.6306H119.08V61.7778H144.222C150.231 61.7778 155.077 62.2315 158.758 63.1389C162.456 64.0292 165.152 65.4416 166.847 67.3763C168.542 69.2939 169.39 71.8021 169.39 74.901C169.39 77.9827 168.542 80.491 166.847 82.4256C165.152 84.3432 162.456 85.7557 158.758 86.6631C155.077 87.5534 150.231 87.9985 144.222 87.9985H134.54V98.6306ZM134.54 78.9073L143.374 78.8816C145.84 78.8816 147.783 78.7874 149.204 78.5991C150.625 78.3936 151.669 78.1111 152.337 77.7516C153.022 77.3921 153.459 76.9726 153.647 76.4932C153.835 75.9967 153.929 75.466 153.929 74.901C153.929 74.3189 153.835 73.7881 153.647 73.3087C153.459 72.8122 153.022 72.3842 152.337 72.0246C151.669 71.6651 150.625 71.3912 149.204 71.2028C147.783 70.9974 145.84 70.8947 143.374 70.8947H134.54V78.9073Z" fill="#FFFEFD"/>
<path d="M219.921 98.6306H175.544V61.7778H217.892V70.8947H191.004V76.673H213.732V83.7611H191.004V89.5137H219.921V98.6306Z" fill="#FFFEFD"/>
<path d="M276.394 98.6306H261.781C261.113 97.7061 260.642 96.5247 260.368 95.0866C260.129 93.9737 259.769 92.8865 259.29 91.825C258.81 90.7464 257.98 89.8561 256.799 89.1542C255.634 88.4351 253.897 88.0499 251.585 87.9985H241.544V98.6306H226.084V61.7778H251.226C257.235 61.7778 262.08 62.2315 265.761 63.1389C269.46 64.0292 272.156 65.4416 273.851 67.3763C275.546 69.2939 276.394 71.8021 276.394 74.901C276.394 77.4862 275.803 79.6606 274.622 81.4241C273.457 83.1875 271.608 84.5829 269.074 85.6101C271.523 86.6203 273.106 87.8359 273.825 89.2569C274.562 90.6608 275.015 92.2103 275.187 93.9052C275.358 95.4119 275.76 96.987 276.394 98.6306ZM241.544 78.9073L250.378 78.8816C252.844 78.8816 254.787 78.7703 256.208 78.5477C257.629 78.3252 258.673 78.0255 259.341 77.6489C260.026 77.2551 260.463 76.8271 260.651 76.3648C260.839 75.8854 260.933 75.3975 260.933 74.901C260.933 74.4045 260.839 73.9165 260.651 73.4371C260.463 72.9577 260.026 72.5297 259.341 72.1531C258.673 71.7593 257.629 71.4511 256.208 71.2285C254.787 71.006 252.844 70.8947 250.378 70.8947H241.544V78.9073Z" fill="#FFFEFD"/>
<path d="M302.784 99.4267C297.802 99.4267 293.787 98.896 290.74 97.8345C287.692 96.7559 285.372 95.2835 283.78 93.4173C282.188 91.534 281.118 89.3682 280.57 86.9199H296.98C298.196 88.6662 300.131 89.5394 302.784 89.5394C305.438 89.5394 307.373 88.6662 308.588 86.9199C308.691 86.7487 308.743 86.5946 308.743 86.4576C308.743 85.9954 308.126 85.6529 306.894 85.4304C305.678 85.1907 303.855 85.0109 301.423 84.891C298.359 84.7541 295.14 84.4288 291.767 83.9152C284.251 82.7509 280.493 79.7291 280.493 74.8496C280.493 74.4387 280.519 74.0021 280.57 73.5399C281.118 71.0916 282.188 68.9343 283.78 67.0681C285.372 65.1848 287.692 63.7124 290.74 62.6509C293.787 61.5723 297.802 61.033 302.784 61.033C307.767 61.033 311.782 61.5723 314.829 62.6509C317.877 63.7124 320.196 65.1848 321.789 67.0681C323.381 68.9343 324.451 71.0916 324.999 73.5399H308.588C307.373 71.7935 305.438 70.9204 302.784 70.9204C300.131 70.9204 298.196 71.7935 296.98 73.5399C296.895 73.6768 296.852 73.8052 296.852 73.9251C296.852 74.336 297.434 74.6442 298.598 74.8496C299.78 75.0379 301.509 75.2006 303.786 75.3376C306.08 75.4745 308.52 75.6971 311.105 76.0053C313.691 76.3135 316.105 76.8528 318.347 77.6232C320.607 78.3765 322.371 79.4979 323.638 80.9875C324.631 82.1346 325.127 83.5899 325.127 85.3533C325.127 85.8498 325.085 86.372 324.999 86.9199C324.451 89.3682 323.381 91.534 321.789 93.4173C320.196 95.2835 317.877 96.7559 314.829 97.8345C311.782 98.896 307.767 99.4267 302.784 99.4267Z" fill="#FFFEFD"/>
<path d="M145.456 37.7172L145.275 39.1919C144.918 42.5562 145.231 45.9578 146.194 49.2009C147.004 52.1377 148.273 54.9282 149.953 57.4692C154.135 55.1507 158.128 52.5074 161.896 49.5636C163.482 48.3822 164.809 46.8893 165.796 45.1764C166.784 43.4635 167.41 41.5669 167.638 39.6029L167.82 38.0919C168.056 36.7593 168.011 35.3919 167.686 34.078C167.361 32.764 166.764 31.5329 165.934 30.4643C165.057 29.408 163.943 28.5746 162.682 28.0325C161.422 27.4904 160.05 27.2549 158.681 27.3455H157.532C154.569 27.2878 151.691 28.3349 149.458 30.283C147.207 32.1455 145.771 34.8126 145.456 37.7172ZM144.127 128.91H145.336C148.548 128.877 151.736 128.351 154.788 127.351C158.137 126.287 160.301 125.235 161.316 124.232L138.349 92.0414C135.916 94.0883 133.823 96.5077 132.147 99.2096C130.456 102.032 129.362 105.171 128.932 108.433L128.751 109.908C128.017 115.944 128.936 120.626 131.507 123.954C134.077 127.282 138.284 128.934 144.127 128.91ZM137.007 154.549C123.202 154.549 112.887 150.83 106.061 143.392C99.2354 135.954 96.5719 125.88 98.0709 113.171L98.4335 109.956C99.5698 100.285 102.479 92.4926 107.161 86.5775C111.738 80.7252 117.475 75.8814 124.012 72.3497C120.698 67.7636 118.097 62.7016 116.3 57.3363C114.487 51.3575 114.073 45.0418 115.091 38.8776L115.502 36.2545C116.345 30.272 118.562 24.5662 121.981 19.585C125.653 14.3346 130.661 10.1612 136.487 7.49679C142.757 4.49893 150.533 3 159.817 3C169.729 3 177.595 4.63996 183.413 7.91988C188.822 10.6219 193.14 15.0979 195.646 20.6004C197.914 25.9363 198.57 31.8195 197.532 37.5238L197.157 39.9414C196.457 46.1114 194.198 52.0018 190.594 57.0582C187.218 61.5633 183.068 65.4315 178.336 68.4815C173.582 71.5519 168.577 74.4611 163.323 77.2092L182.349 103.706C184.6 100.21 186.569 96.5396 188.236 92.7304C190.149 88.3828 191.462 83.7958 192.141 79.0949L192.322 77.7652H223.546C222.169 87.2694 219.446 96.5291 215.459 105.266C211.567 113.662 206.209 121.296 199.636 127.81L217.091 152.059H181.37L176.136 145.072C170.347 147.99 164.27 150.299 158.004 151.962C151.148 153.739 144.089 154.609 137.007 154.549Z" stroke="#ED2024" stroke-width="4.47"/>
<path d="M130.148 218.087C119.109 218.087 110.986 215.815 105.778 211.271C101.172 207.266 98.8688 201.788 98.8688 194.837C98.8688 187.887 101.172 182.398 105.778 178.373C110.986 173.85 119.109 171.588 130.148 171.588C136.622 171.588 141.975 172.335 146.208 173.829C150.44 175.302 153.729 177.325 156.074 179.898C158.418 182.471 159.975 185.417 160.742 188.737H141.041C139.07 185.272 135.439 183.54 130.148 183.54C125.625 183.54 122.294 184.847 120.157 187.461C118.456 189.536 117.605 191.995 117.605 194.837C117.605 197.68 118.456 200.139 120.157 202.214C122.294 204.828 125.625 206.135 130.148 206.135C135.439 206.135 139.07 204.392 141.041 200.907H160.742C159.975 204.247 158.418 207.204 156.074 209.777C153.729 212.35 150.44 214.383 146.208 215.877C141.975 217.35 136.622 218.087 130.148 218.087Z" fill="#ED2024"/>
<path d="M197.007 218.087C185.969 218.087 177.846 215.815 172.638 211.271C168.031 207.245 165.728 201.757 165.728 194.806C165.728 187.876 168.031 182.398 172.638 178.373C177.846 173.829 185.969 171.557 197.007 171.557C208.046 171.557 216.169 173.829 221.377 178.373C225.983 182.398 228.286 187.876 228.286 194.806C228.286 201.757 225.983 207.245 221.377 211.271C216.169 215.815 208.046 218.087 197.007 218.087ZM197.007 206.104C201.531 206.104 204.85 204.807 206.967 202.214C208.668 200.118 209.519 197.649 209.519 194.806C209.519 191.964 208.668 189.505 206.967 187.43C204.85 184.816 201.531 183.508 197.007 183.508C192.484 183.508 189.154 184.816 187.017 187.43C185.315 189.505 184.464 191.964 184.464 194.806C184.464 197.649 185.315 200.118 187.017 202.214C189.154 204.807 192.484 206.104 197.007 206.104Z" fill="#ED2024"/>
</svg>
