<svg width="249" height="178" viewBox="0 0 249 178" fill="none" xmlns="http://www.w3.org/2000/svg">
<path d="M41.8961 74.6205H30.1979V63.3693H15.5072V74.6205H3.80901V46.7353H15.5072V58.006H30.1979V46.7353H41.8961V74.6205Z" fill="black"/>
<path d="M72.2022 74.6205H60.5041V61.4066L45.2886 46.7353H58.2499L66.3531 55.0717L74.4369 46.7353H87.3982L72.2022 61.4066V74.6205Z" fill="black"/>
<path d="M102.501 74.6205H90.803V46.7353H109.827C114.374 46.7353 118.04 47.0786 120.826 47.7652C123.624 48.4389 125.664 49.5076 126.947 50.9715C128.229 52.4225 128.871 54.3204 128.871 56.6652C128.871 58.997 128.229 60.8949 126.947 62.3588C125.664 63.8097 123.624 64.8785 120.826 65.5651C118.04 66.2388 114.374 66.5756 109.827 66.5756H102.501V74.6205ZM102.501 59.6966L109.186 59.6772C111.051 59.6772 112.522 59.6059 113.597 59.4634C114.672 59.308 115.462 59.0942 115.968 58.8222C116.486 58.5501 116.816 58.2327 116.959 57.87C117.101 57.4943 117.172 57.0927 117.172 56.6652C117.172 56.2247 117.101 55.8231 116.959 55.4604C116.816 55.0847 116.486 54.7608 115.968 54.4888C115.462 54.2167 114.672 54.0094 113.597 53.8669C112.522 53.7115 111.051 53.6338 109.186 53.6338H102.501V59.6966Z" fill="black"/>
<path d="M167.106 74.6205H133.527V46.7353H165.571V53.6338H145.225V58.006H162.423V63.3693H145.225V67.7221H167.106V74.6205Z" fill="black"/>
<path d="M209.837 74.6205H198.78C198.275 73.921 197.919 73.0271 197.711 71.9389C197.53 71.0968 197.258 70.2742 196.895 69.471C196.532 68.6548 195.904 67.9812 195.01 67.45C194.129 66.9059 192.814 66.6145 191.065 66.5756H183.467V74.6205H171.769V46.7353H190.793C195.341 46.7353 199.007 47.0786 201.792 47.7652C204.59 48.4389 206.631 49.5076 207.913 50.9715C209.196 52.4225 209.837 54.3204 209.837 56.6652C209.837 58.6214 209.39 60.2666 208.496 61.601C207.615 62.9353 206.216 63.9911 204.299 64.7684C206.151 65.5327 207.35 66.4525 207.894 67.5278C208.451 68.5901 208.794 69.7625 208.924 71.045C209.053 72.185 209.358 73.3769 209.837 74.6205ZM183.467 59.6966L190.152 59.6772C192.018 59.6772 193.488 59.593 194.563 59.4245C195.638 59.2561 196.429 59.0294 196.934 58.7444C197.452 58.4465 197.782 58.1226 197.925 57.7728C198.067 57.4101 198.139 57.0409 198.139 56.6652C198.139 56.2895 198.067 55.9203 197.925 55.5575C197.782 55.1948 197.452 54.8709 196.934 54.5859C196.429 54.288 195.638 54.0548 194.563 53.8864C193.488 53.718 192.018 53.6338 190.152 53.6338H183.467V59.6966Z" fill="black"/>
<path d="M229.806 75.2229C226.036 75.2229 222.998 74.8213 220.692 74.0181C218.386 73.202 216.631 72.0879 215.426 70.6758C214.221 69.2508 213.412 67.612 212.997 65.7594H225.414C226.334 67.0808 227.798 67.7415 229.806 67.7415C231.814 67.7415 233.278 67.0808 234.198 65.7594C234.275 65.6299 234.314 65.5133 234.314 65.4097C234.314 65.0599 233.848 64.8008 232.915 64.6324C231.995 64.451 230.616 64.315 228.776 64.2243C226.457 64.1207 224.022 63.8745 221.469 63.4859C215.782 62.605 212.939 60.3184 212.939 56.6263C212.939 56.3154 212.958 55.985 212.997 55.6353C213.412 53.7827 214.221 52.1504 215.426 50.7384C216.631 49.3133 218.386 48.1992 220.692 47.396C222.998 46.5799 226.036 46.1718 229.806 46.1718C233.576 46.1718 236.614 46.5799 238.92 47.396C241.226 48.1992 242.981 49.3133 244.186 50.7384C245.391 52.1504 246.2 53.7827 246.615 55.6353H234.198C233.278 54.3139 231.814 53.6532 229.806 53.6532C227.798 53.6532 226.334 54.3139 225.414 55.6353C225.349 55.7389 225.317 55.8361 225.317 55.9268C225.317 56.2377 225.758 56.4709 226.638 56.6263C227.532 56.7688 228.841 56.8919 230.564 56.9955C232.3 57.0992 234.146 57.2676 236.102 57.5008C238.058 57.7339 239.885 58.142 241.582 58.725C243.292 59.295 244.626 60.1435 245.585 61.2706C246.336 62.1386 246.712 63.2397 246.712 64.5741C246.712 64.9498 246.68 65.3449 246.615 65.7594C246.2 67.612 245.391 69.2508 244.186 70.6758C242.981 72.0879 241.226 73.202 238.92 74.0181C236.614 74.8213 233.576 75.2229 229.806 75.2229Z" fill="black"/>
<path d="M110.762 29.0927L110.624 30.2086C110.354 32.7542 110.591 35.3281 111.32 37.782C111.933 40.0042 112.893 42.1157 114.164 44.0384C117.328 42.284 120.35 40.2839 123.201 38.0564C124.401 37.1626 125.405 36.0329 126.152 34.7368C126.899 33.4408 127.373 32.0056 127.546 30.5196L127.683 29.3763C127.862 28.3679 127.828 27.3332 127.582 26.339C127.336 25.3448 126.885 24.4133 126.256 23.6047C125.593 22.8055 124.75 22.1749 123.796 21.7647C122.842 21.3545 121.804 21.1763 120.768 21.2449H119.899C117.657 21.2012 115.479 21.9935 113.789 23.4675C112.086 24.8768 111 26.8949 110.762 29.0927ZM109.756 98.0952H110.67C113.101 98.0697 115.513 97.6718 117.823 96.9152C120.357 96.1103 121.994 95.3146 122.762 94.5554L105.383 70.1978C103.543 71.7467 101.959 73.5774 100.691 75.6218C99.4117 77.7574 98.5836 80.1326 98.2582 82.6007L98.121 83.7166C97.5661 88.2838 98.2612 91.8267 100.206 94.345C102.152 96.8634 105.335 98.1135 109.756 98.0952ZM104.368 117.495C93.9226 117.495 86.1175 114.681 80.9527 109.053C75.7878 103.425 73.7725 95.8024 74.9067 86.1862L75.1811 83.7532C76.0409 76.4359 78.2422 70.5393 81.785 66.0635C85.2485 61.6353 89.5893 57.9702 94.5355 55.2979C92.0275 51.8277 90.06 47.9975 88.6999 43.9378C87.328 39.4138 87.0151 34.635 87.7852 29.9708L88.0962 27.986C88.7338 23.4592 90.4119 19.1418 92.9988 15.3727C95.7768 11.4 99.5663 8.2421 103.975 6.22605C108.719 3.95767 114.603 2.82349 121.628 2.82349C129.128 2.82349 135.08 4.06438 139.482 6.54618C143.575 8.59072 146.842 11.9775 148.739 16.141C150.454 20.1786 150.95 24.6302 150.165 28.9464L149.882 30.7757C149.352 35.4443 147.643 39.9013 144.915 43.7274C142.361 47.1362 139.221 50.0631 135.641 52.371C132.043 54.6942 128.256 56.8955 124.28 58.9749L138.677 79.0244C140.38 76.3786 141.87 73.6015 143.132 70.7192C144.579 67.4296 145.573 63.9587 146.086 60.4018L146.223 59.3956H169.849C168.807 66.587 166.747 73.5935 163.73 80.2043C160.785 86.5573 156.731 92.334 151.757 97.2628L164.965 115.611H137.936L133.976 110.324C129.595 112.532 124.997 114.279 120.256 115.538C115.068 116.882 109.727 117.54 104.368 117.495Z" stroke="#ED2024" stroke-width="4.47"/>
<path d="M99.178 165.442C90.8256 165.442 84.679 163.723 80.7383 160.284C77.2529 157.254 75.5102 153.11 75.5102 147.85C75.5102 142.591 77.2529 138.438 80.7383 135.392C84.679 131.97 90.8256 130.258 99.178 130.258C104.076 130.258 108.127 130.823 111.33 131.954C114.533 133.069 117.021 134.599 118.795 136.546C120.569 138.493 121.747 140.722 122.328 143.234H107.42C105.929 140.612 103.181 139.301 99.178 139.301C95.7554 139.301 93.2355 140.291 91.6184 142.269C90.331 143.839 89.6873 145.699 89.6873 147.85C89.6873 150.001 90.331 151.861 91.6184 153.431C93.2355 155.41 95.7554 156.399 99.178 156.399C103.181 156.399 105.929 155.08 107.42 152.442H122.328C121.747 154.97 120.569 157.207 118.795 159.154C117.021 161.101 114.533 162.639 111.33 163.77C108.127 164.885 104.076 165.442 99.178 165.442Z" fill="#ED2024"/>
<path d="M149.768 165.442C141.416 165.442 135.269 163.723 131.329 160.284C127.843 157.239 126.1 153.086 126.1 147.827C126.1 142.583 127.843 138.438 131.329 135.392C135.269 131.954 141.416 130.235 149.768 130.235C158.121 130.235 164.267 131.954 168.208 135.392C171.693 138.438 173.436 142.583 173.436 147.827C173.436 153.086 171.693 157.239 168.208 160.284C164.267 163.723 158.121 165.442 149.768 165.442ZM149.768 156.375C153.191 156.375 155.703 155.394 157.304 153.431C158.592 151.846 159.235 149.977 159.235 147.827C159.235 145.676 158.592 143.815 157.304 142.245C155.703 140.267 153.191 139.278 149.768 139.278C146.346 139.278 143.826 140.267 142.209 142.245C140.921 143.815 140.278 145.676 140.278 147.827C140.278 149.977 140.921 151.846 142.209 153.431C143.826 155.394 146.346 156.375 149.768 156.375Z" fill="#ED2024"/>
</svg>
