<svg width="74" height="77" viewBox="0 0 74 77" fill="none" xmlns="http://www.w3.org/2000/svg">
<g id="Group 137">
<path id="Vector" d="M3 25.0557H70.6665L67.1352 65.5537C66.9442 67.7457 65.9746 69.784 64.4167 71.2685C62.8588 72.7531 60.8251 73.5766 58.7149 73.5775H14.9516C12.8414 73.5766 10.8077 72.7531 9.24983 71.2685C7.69193 69.784 6.72232 67.7457 6.53135 65.5537L3 25.0557Z" stroke="black" stroke-width="5" stroke-linejoin="round"/>
<path id="Vector_2" d="M19.917 33.8775V20.6443C19.917 15.9647 21.6993 11.4768 24.8718 8.16789C28.0442 4.85895 32.347 3 36.8336 3C41.3202 3 45.623 4.85895 48.7955 8.16789C51.968 11.4768 53.7502 15.9647 53.7502 20.6443V33.8775" stroke="black" stroke-width="5" stroke-linecap="round"/>
</g>
</svg>
