<svg width="49" height="40" viewBox="0 0 49 40" fill="none" xmlns="http://www.w3.org/2000/svg">
<path d="M48.8218 5.25242C47.0508 6.03511 45.1485 6.56182 43.1517 6.79939C45.191 5.58391 46.7547 3.6594 47.4912 1.36472C45.5852 2.48996 43.4719 3.30765 41.2216 3.74964C39.4211 1.83987 36.8562 0.646484 34.0175 0.646484C28.5658 0.646484 24.1468 5.04616 24.1468 10.4698C24.1468 11.2396 24.2356 11.991 24.4021 12.7074C16.1987 12.2985 8.92612 8.38689 4.05552 2.44208C3.20798 3.89329 2.72129 5.58023 2.72129 7.38319C2.72129 10.7902 4.46264 13.7976 7.11075 15.5582C5.49338 15.5067 3.9704 15.0647 2.63986 14.3298C2.63986 14.3722 2.63986 14.4109 2.63986 14.4532C2.63986 19.2139 6.04114 23.1844 10.5583 24.085C9.73111 24.3097 8.85765 24.4294 7.95644 24.4294C7.32171 24.4294 6.70178 24.3668 6.10036 24.2544C7.35687 28.1569 11.0024 30.9985 15.3216 31.0777C11.9443 33.7131 7.68812 35.284 3.06178 35.284C2.26605 35.284 1.47958 35.238 0.706055 35.1459C5.07516 37.9323 10.2622 39.5584 15.8379 39.5584C33.9953 39.5584 43.9216 24.5896 43.9216 11.6079C43.9216 11.1825 43.9123 10.7589 43.8938 10.3372C45.8239 8.95043 47.4986 7.22113 48.8218 5.25242Z" fill="#FFFEFD"/>
</svg>
