<svg width="127" height="131" viewBox="0 0 127 131" fill="none" xmlns="http://www.w3.org/2000/svg">
<path fill-rule="evenodd" clip-rule="evenodd" d="M-1.31672 28.3597C-5.47141 35.3479 -3.17435 44.3811 3.81388 48.5358L41.7735 71.1038L19.4558 108.642C15.3011 115.631 17.5981 124.664 24.5863 128.819C31.5746 132.973 40.6077 130.676 44.7624 123.688L67.0801 86.1493L104.619 108.467C111.607 112.622 120.64 110.325 124.795 103.336C128.949 96.3481 126.652 87.3149 119.664 83.1602L82.1256 60.8426L104.694 22.8831C108.848 15.8949 106.551 6.86178 99.5629 2.70709C92.5747 -1.44761 83.5416 0.849452 79.3869 7.83769L56.819 45.7971L18.8593 23.2291C11.8711 19.0744 2.83797 21.3715 -1.31672 28.3597Z" fill="black"/>
</svg>
