<svg width="295" height="379" viewBox="0 0 295 379" fill="none" xmlns="http://www.w3.org/2000/svg">
<mask id="path-1-inside-1_11_1903" fill="white">
<path fill-rule="evenodd" clip-rule="evenodd" d="M95.9867 14.4028C83.3234 19.9052 77.5183 34.6315 83.0207 47.2948L136.149 169.566L15.0863 222.17C2.423 227.672 -3.38206 242.398 2.12037 255.062L13.7404 281.804C19.2428 294.467 33.9691 300.272 46.6324 294.77L167.695 242.166L220.299 363.229C225.802 375.892 240.528 381.697 253.191 376.195L279.934 364.575C292.597 359.072 298.402 344.346 292.899 331.683L240.296 210.62L362.566 157.492C375.23 151.989 381.035 137.263 375.532 124.6L363.912 97.8572C358.41 85.1939 343.684 79.3888 331.02 84.8912L208.75 138.02L155.621 15.7487C150.119 3.0854 135.392 -2.71967 122.729 2.78275L95.9867 14.4028Z"/>
</mask>
<path d="M83.0207 47.2948L77.5178 49.6859L83.0207 47.2948ZM95.9867 14.4028L98.3778 19.9057L95.9867 14.4028ZM136.149 169.566L138.541 175.069L144.044 172.678L141.652 167.175L136.149 169.566ZM15.0863 222.17L12.6952 216.667L12.6952 216.667L15.0863 222.17ZM2.12037 255.062L-3.38259 257.453L-3.38259 257.453L2.12037 255.062ZM13.7404 281.804L8.23742 284.195L8.23742 284.195L13.7404 281.804ZM46.6324 294.77L44.2413 289.267L46.6324 294.77ZM167.695 242.166L173.198 239.775L170.807 234.272L165.304 236.663L167.695 242.166ZM220.299 363.229L225.802 360.838L220.299 363.229ZM253.191 376.195L250.8 370.692L253.191 376.195ZM279.934 364.575L282.325 370.078L282.325 370.078L279.934 364.575ZM292.899 331.683L287.396 334.074L287.396 334.074L292.899 331.683ZM240.296 210.62L237.905 205.117L232.402 207.508L234.793 213.011L240.296 210.62ZM362.566 157.492L364.957 162.995L364.957 162.995L362.566 157.492ZM375.532 124.6L381.035 122.208L375.532 124.6ZM363.912 97.8572L358.409 100.248L363.912 97.8572ZM331.02 84.8912L328.629 79.3883L328.629 79.3883L331.02 84.8912ZM208.75 138.02L203.247 140.411L205.638 145.914L211.141 143.523L208.75 138.02ZM155.621 15.7487L161.124 13.3576L161.124 13.3576L155.621 15.7487ZM122.729 2.78275L120.338 -2.72021L122.729 2.78275ZM88.5237 44.9037C84.3418 35.2795 88.7537 24.0876 98.3778 19.9057L93.5956 8.89981C77.893 15.7228 70.6948 33.9834 77.5178 49.6859L88.5237 44.9037ZM141.652 167.175L88.5237 44.9037L77.5178 49.6859L130.646 171.957L141.652 167.175ZM17.4775 227.673L138.541 175.069L133.758 164.063L12.6952 216.667L17.4775 227.673ZM7.62332 252.67C3.44148 243.046 7.85332 231.854 17.4775 227.673L12.6952 216.667C-3.00732 223.49 -10.2056 241.75 -3.38259 257.453L7.62332 252.67ZM19.2433 279.413L7.62332 252.67L-3.38259 257.453L8.23742 284.195L19.2433 279.413ZM44.2413 289.267C34.6171 293.449 23.4252 289.037 19.2433 279.413L8.23742 284.195C15.0604 299.898 33.321 307.096 49.0235 300.273L44.2413 289.267ZM165.304 236.663L44.2413 289.267L49.0235 300.273L170.087 247.669L165.304 236.663ZM225.802 360.838L173.198 239.775L162.193 244.557L214.796 365.62L225.802 360.838ZM250.8 370.692C241.176 374.874 229.984 370.462 225.802 360.838L214.796 365.62C221.619 381.322 239.88 388.521 255.582 381.698L250.8 370.692ZM277.542 359.072L250.8 370.692L255.582 381.698L282.325 370.078L277.542 359.072ZM287.396 334.074C291.578 343.698 287.167 354.89 277.542 359.072L282.325 370.078C298.027 363.255 305.225 344.994 298.402 329.291L287.396 334.074ZM234.793 213.011L287.396 334.074L298.402 329.291L245.799 208.229L234.793 213.011ZM360.175 151.989L237.905 205.117L242.687 216.123L364.957 162.995L360.175 151.989ZM370.029 126.991C374.211 136.615 369.799 147.807 360.175 151.989L364.957 162.995C380.66 156.172 387.858 137.911 381.035 122.208L370.029 126.991ZM358.409 100.248L370.029 126.991L381.035 122.208L369.415 95.4661L358.409 100.248ZM333.411 90.3942C343.035 86.2123 354.227 90.6242 358.409 100.248L369.415 95.4661C362.592 79.7635 344.332 72.5653 328.629 79.3883L333.411 90.3942ZM211.141 143.523L333.411 90.3942L328.629 79.3883L206.359 132.517L211.141 143.523ZM150.118 18.1398L203.247 140.411L214.253 135.629L161.124 13.3576L150.118 18.1398ZM125.12 8.28571C134.744 4.10387 145.936 8.51571 150.118 18.1399L161.124 13.3576C154.301 -2.34492 136.041 -9.54321 120.338 -2.72021L125.12 8.28571ZM98.3778 19.9057L125.12 8.28571L120.338 -2.72021L93.5956 8.89981L98.3778 19.9057Z" fill="black" mask="url(#path-1-inside-1_11_1903)"/>
</svg>
