<svg width="291" height="362" viewBox="0 0 291 362" fill="none" xmlns="http://www.w3.org/2000/svg">
<mask id="path-1-inside-1_11_1895" fill="white">
<path fill-rule="evenodd" clip-rule="evenodd" d="M-66.981 93.2711C-74.0369 105.139 -70.1359 120.48 -58.2678 127.536L56.3245 195.664L-11.1307 309.124C-18.1865 320.993 -14.2855 336.333 -2.41744 343.389L22.6456 358.29C34.5136 365.346 49.8545 361.445 56.9104 349.577L124.366 236.116L237.825 303.571C249.693 310.627 265.034 306.726 272.09 294.858L286.991 269.795C294.047 257.927 290.146 242.586 278.278 235.53L164.818 168.075L232.946 53.4835C240.002 41.6155 236.101 26.2746 224.232 19.2187L199.169 4.3181C187.301 -2.73778 171.96 1.16327 164.905 13.0314L96.7767 127.623L-17.8156 59.4949C-29.6837 52.439 -45.0246 56.3401 -52.0804 68.2081L-66.981 93.2711Z"/>
</mask>
<path d="M-58.2678 127.536L-61.334 132.693L-58.2678 127.536ZM-66.981 93.2711L-61.8237 96.3373L-66.981 93.2711ZM56.3245 195.664L61.4819 198.73L64.5481 193.573L59.3907 190.507L56.3245 195.664ZM-11.1307 309.124L-16.288 306.058L-16.288 306.058L-11.1307 309.124ZM-2.41744 343.389L0.648753 338.232L0.648753 338.232L-2.41744 343.389ZM22.6456 358.29L19.5794 363.447L19.5794 363.447L22.6456 358.29ZM56.9104 349.577L51.753 346.51L56.9104 349.577ZM124.366 236.116L127.432 230.959L122.274 227.893L119.208 233.05L124.366 236.116ZM237.825 303.571L234.759 308.729L237.825 303.571ZM272.09 294.858L266.933 291.792L272.09 294.858ZM286.991 269.795L292.148 272.861L286.991 269.795ZM278.278 235.53L275.211 240.688L275.211 240.688L278.278 235.53ZM164.818 168.075L159.66 165.009L156.594 170.166L161.752 173.233L164.818 168.075ZM232.946 53.4835L238.103 56.5497L232.946 53.4835ZM224.232 19.2187L227.299 14.0613L224.232 19.2187ZM199.169 4.3181L196.103 9.47546L199.169 4.3181ZM164.905 13.0314L159.747 9.96514L159.747 9.96515L164.905 13.0314ZM96.7767 127.623L93.7105 132.78L98.8679 135.847L101.934 130.689L96.7767 127.623ZM-17.8156 59.4949L-14.7494 54.3375L-14.7494 54.3375L-17.8156 59.4949ZM-52.0804 68.2081L-57.2378 65.1419L-57.2378 65.1419L-52.0804 68.2081ZM-55.2016 122.379C-64.2213 117.016 -67.1861 105.357 -61.8237 96.3373L-72.1384 90.2049C-80.8877 104.921 -76.0504 123.944 -61.334 132.693L-55.2016 122.379ZM59.3907 190.507L-55.2016 122.379L-61.334 132.693L53.2583 200.822L59.3907 190.507ZM-5.97329 312.191L61.4819 198.73L51.1672 192.598L-16.288 306.058L-5.97329 312.191ZM0.648753 338.232C-8.37097 332.869 -11.3358 321.21 -5.97329 312.191L-16.288 306.058C-25.0373 320.775 -20.2 339.797 -5.48363 348.547L0.648753 338.232ZM25.7118 353.133L0.648753 338.232L-5.48363 348.547L19.5794 363.447L25.7118 353.133ZM51.753 346.51C46.3906 355.53 34.7315 358.495 25.7118 353.133L19.5794 363.447C34.2958 372.197 53.3185 367.359 62.0678 352.643L51.753 346.51ZM119.208 233.05L51.753 346.51L62.0678 352.643L129.523 239.183L119.208 233.05ZM240.892 298.414L127.432 230.959L121.299 241.274L234.759 308.729L240.892 298.414ZM266.933 291.792C261.57 300.812 249.911 303.776 240.892 298.414L234.759 308.729C249.476 317.478 268.498 312.641 277.248 297.924L266.933 291.792ZM281.833 266.729L266.933 291.792L277.248 297.924L292.148 272.861L281.833 266.729ZM275.211 240.688C284.231 246.05 287.196 257.709 281.833 266.729L292.148 272.861C300.897 258.145 296.06 239.122 281.344 230.373L275.211 240.688ZM161.752 173.233L275.211 240.688L281.344 230.373L167.884 162.918L161.752 173.233ZM227.788 50.4173L159.66 165.009L169.975 171.142L238.103 56.5497L227.788 50.4173ZM221.166 24.376C230.186 29.7385 233.151 41.3976 227.788 50.4173L238.103 56.5497C246.852 41.8333 242.015 22.8106 227.299 14.0613L221.166 24.376ZM196.103 9.47546L221.166 24.376L227.299 14.0613L202.236 -0.83928L196.103 9.47546ZM170.062 16.0975C175.424 7.07778 187.084 4.11299 196.103 9.47546L202.236 -0.83928C187.519 -9.58857 168.497 -4.75126 159.747 9.96514L170.062 16.0975ZM101.934 130.689L170.062 16.0975L159.747 9.96515L91.6194 124.557L101.934 130.689ZM-20.8818 64.6523L93.7105 132.78L99.8429 122.466L-14.7494 54.3375L-20.8818 64.6523ZM-46.9231 71.2743C-41.5606 62.2546 -29.9015 59.2898 -20.8818 64.6523L-14.7494 54.3375C-29.4658 45.5883 -48.4885 50.4255 -57.2378 65.1419L-46.9231 71.2743ZM-61.8237 96.3373L-46.9231 71.2743L-57.2378 65.1419L-72.1384 90.2049L-61.8237 96.3373Z" fill="#D70707" mask="url(#path-1-inside-1_11_1895)"/>
</svg>
