<svg width="136" height="136" viewBox="0 0 136 136" fill="none" xmlns="http://www.w3.org/2000/svg">
<path fill-rule="evenodd" clip-rule="evenodd" d="M36.5862 1.59348C29.2211 5.03633 26.0416 13.7979 29.4844 21.1629L48.1857 61.1693L8.62301 79.6632C1.25798 83.106 -1.92159 91.8675 1.52126 99.2326C4.96411 106.598 13.7256 109.777 21.0907 106.334L60.6534 87.8404L79.1472 127.403C82.5901 134.768 91.3516 137.948 98.7166 134.505C106.082 131.062 109.261 122.3 105.818 114.935L87.3245 75.3728L127.331 56.6715C134.696 53.2287 137.875 44.4672 134.432 37.1021C130.99 29.7371 122.228 26.5575 114.863 30.0004L74.8569 48.7016L56.1556 8.69523C52.7127 1.3302 43.9512 -1.84936 36.5862 1.59348Z" fill="#D70707"/>
</svg>
